<?xml version="1.0" encoding="UTF-8" standalone="no"?>
<!-- Created with Inkscape (http://www.inkscape.org/) -->

<svg
   xmlns:dc="http://purl.org/dc/elements/1.1/"
   xmlns:cc="http://creativecommons.org/ns#"
   xmlns:rdf="http://www.w3.org/1999/02/22-rdf-syntax-ns#"
   xmlns:svg="http://www.w3.org/2000/svg"
   xmlns="http://www.w3.org/2000/svg"
   xmlns:sodipodi="http://sodipodi.sourceforge.net/DTD/sodipodi-0.dtd"
   xmlns:inkscape="http://www.inkscape.org/namespaces/inkscape"
   width="1200"
   height="900"
   viewBox="0 0 317.49999 238.12501"
   version="1.1"
   id="svg8"
   inkscape:version="0.92.3 (2405546, 2018-03-11)"
   sodipodi:docname="screenshot.svg"
   inkscape:export-filename="/home/schlipak/dev/apache2/sps/wp-content/themes/sps/screenshot.png"
   inkscape:export-xdpi="96"
   inkscape:export-ydpi="96">
  <defs
     id="defs2">
    <filter
       id="filter-1">
      <feColorMatrix
         id="feColorMatrix822"
         values="0 0 0 0 1.000000 0 0 0 0 1.000000 0 0 0 0 1.000000 0 0 0 1.000000 0"
         type="matrix"
         in="SourceGraphic" />
    </filter>
  </defs>
  <sodipodi:namedview
     id="base"
     pagecolor="#ffffff"
     bordercolor="#666666"
     borderopacity="1.0"
     inkscape:pageopacity="0.0"
     inkscape:pageshadow="2"
     inkscape:zoom="0.7"
     inkscape:cx="574.5672"
     inkscape:cy="461.29061"
     inkscape:document-units="mm"
     inkscape:current-layer="layer1"
     showgrid="true"
     units="px"
     inkscape:window-width="1920"
     inkscape:window-height="1041"
     inkscape:window-x="0"
     inkscape:window-y="685"
     inkscape:window-maximized="1">
    <inkscape:grid
       type="xygrid"
       id="grid815"
       spacingx="26.458333"
       spacingy="26.458333"
       empspacing="3" />
  </sodipodi:namedview>
  <metadata
     id="metadata5">
    <rdf:RDF>
      <cc:Work
         rdf:about="">
        <dc:format>image/svg+xml</dc:format>
        <dc:type
           rdf:resource="http://purl.org/dc/dcmitype/StillImage" />
        <dc:title />
      </cc:Work>
    </rdf:RDF>
  </metadata>
  <g
     inkscape:label="Layer 1"
     inkscape:groupmode="layer"
     id="layer1"
     transform="translate(0,-58.874983)">
    <rect
       style="opacity:1;vector-effect:none;fill:#0f0f10;fill-opacity:1;stroke:none;stroke-width:1.58749986;stroke-linecap:butt;stroke-linejoin:round;stroke-miterlimit:4;stroke-dasharray:none;stroke-dashoffset:0;stroke-opacity:1;paint-order:normal"
       id="rect818"
       width="317.5"
       height="238.125"
       x="0"
       y="58.874985" />
    <g
       id="Symbols"
       transform="matrix(1.055112,0,0,1.055112,71.091697,137.90076)"
       style="fill:none;fill-rule:evenodd;stroke:none;stroke-width:1">
      <g
         id="LOGO---COULEUR-&quot;OG&quot;">
        <g
           id="Group-27"
           style="filter:url(#filter-1)">
          <g
             id="g840"
             transform="translate(83.404255,1.4505)">
            <path
               id="Fill-1"
               d="M 26.810582,17.731742 C 29.852346,17.731742 32.244231,15.62355 32.244231,12.230046 32.244231,9.556308 30.736154,6.7281242 26.810582,6.7281242 23.612865,6.7281242 21.143004,8.733654 21.143004,12.230046 21.143004,14.980894 22.884781,17.731742 26.810582,17.731742 Z M 19.323022,5.5454744 H 21.24682 V 8.2194388 H 21.298728 C 21.818952,7.08812 23.066802,5.1343735 26.810582,5.1343735 32.348047,5.1343735 34.168029,8.9647569 34.168029,12.230046 34.168029,15.957767 31.85412,19.325719 26.810582,19.325719 24.262516,19.325719 22.182765,17.937519 21.298728,16.240654 H 21.24682 V 24.107649 H 19.323022 Z"
               inkscape:connector-curvature="0"
               style="fill:#575756" />
            <path
               id="Fill-3"
               d="M 43.864126,17.731742 C 47.503861,17.731742 49.60968,15.443552 49.60968,12.230046 49.60968,9.0163141 47.503861,6.7281242 43.864126,6.7281242 40.224391,6.7281242 38.118572,9.0163141 38.118572,12.230046 38.118572,15.443552 40.224391,17.731742 43.864126,17.731742 M 43.864126,5.1343735 C 49.063617,5.1343735 51.533478,8.5020989 51.533478,12.230046 51.533478,15.957767 49.063617,19.325719 43.864126,19.325719 38.664635,19.325719 36.194545,15.957767 36.194545,12.230046 36.194545,8.5020989 38.664635,5.1343735 43.864126,5.1343735"
               inkscape:connector-curvature="0"
               style="fill:#575756" />
            <path
               id="Fill-5"
               d="M 54.028539,5.5455648 H 55.952337 V 8.6050776 H 56.004474 C 56.706489,7.0108747 57.980179,5.1342378 61.178125,5.1342378 61.723959,5.1342378 62.036093,5.1855689 62.322159,5.2371261 V 7.1908726 C 61.723959,7.0882105 61.152057,7.0366533 60.554085,7.0366533 58.474106,7.0366533 55.952337,8.2966389 55.952337,12.10147 V 18.914482 H 54.028539 Z"
               inkscape:connector-curvature="0"
               style="fill:#575756" />
            <path
               id="Fill-7"
               d="M 66.376907,1.3292939 H 68.300705 V 5.5456779 H 72.122461 V 6.9852092 H 68.300705 V 15.829304 C 68.300705,16.986175 68.664747,17.525943 70.224732,17.525943 71.160677,17.525943 71.758419,17.449059 72.122461,17.371724 V 18.965927 C 71.394606,19.068589 70.640682,19.120146 70.016642,19.120146 67.027015,19.120146 66.376907,17.963275 66.376907,15.803525 V 6.9852092 H 63.438959 V 5.5456779 H 66.376907 Z"
               inkscape:connector-curvature="0"
               style="fill:#575756" />
            <path
               id="Fill-9"
               d="M 19.322999,32.226144 H 21.246797 V 35.285657 H 21.298934 C 22.00095,33.691454 23.27464,31.814818 26.472585,31.814818 27.01842,31.814818 27.330554,31.866149 27.61662,31.917706 V 33.871452 C 27.01842,33.76879 26.446517,33.717233 25.848546,33.717233 23.768566,33.717233 21.246797,34.977219 21.246797,38.782049 V 45.595062 H 19.322999 Z"
               inkscape:connector-curvature="0"
               style="fill:#575756" />
            <path
               id="Fill-11"
               d="M 36.143163,44.412322 C 39.782898,44.412322 41.888717,42.124132 41.888717,38.910626 41.888717,35.696894 39.782898,33.408704 36.143163,33.408704 32.503428,33.408704 30.397609,35.696894 30.397609,38.910626 30.397609,42.124132 32.503428,44.412322 36.143163,44.412322 M 36.143163,31.814953 C 41.342654,31.814953 43.812515,35.182679 43.812515,38.910626 43.812515,42.638347 41.342654,46.006299 36.143163,46.006299 30.943672,46.006299 28.473582,42.638347 28.473582,38.910626 28.473582,35.182679 30.943672,31.814953 36.143163,31.814953"
               inkscape:connector-curvature="0"
               style="fill:#575756" />
            <path
               id="Fill-13"
               d="M 30.086321,65.07699 C 29.228352,65.616984 27.928365,65.719646 24.08054,66.079642 21.844837,66.285419 20.54485,66.953853 20.54485,68.54783 20.54485,70.630244 22.364603,71.247121 24.444582,71.247121 27.044328,71.247121 30.086321,69.858695 30.086321,67.107847 Z M 19.219023,63.02013 C 19.505089,60.21795 21.039005,58.495533 25.666593,58.495533 30.190137,58.495533 31.853937,59.883733 31.853937,62.454583 V 69.447594 C 31.853937,70.553134 32.166071,70.938682 32.920224,70.938682 33.257969,70.938682 33.596172,70.91313 33.933917,70.887125 V 72.172663 C 33.544035,72.249999 32.946064,72.37844 32.322024,72.37844 30.372158,72.37844 30.268342,71.067123 30.242273,70.01314 H 30.190137 C 29.592394,70.887125 28.292407,72.686878 23.87268,72.686878 21.558771,72.686878 18.621052,71.684226 18.621052,68.676271 18.621052,65.051212 22.3909,64.639885 25.354688,64.485665 29.566326,64.25411 30.086321,64.023008 30.086321,62.711691 30.086321,60.783497 28.786334,60.089284 25.614457,60.089284 22.572921,60.089284 21.116753,60.886385 20.986868,63.02013 Z"
               inkscape:connector-curvature="0"
               style="fill:#575756" />
            <path
               id="Fill-15"
               d="M 46.698144,63.663012 C 46.698144,61.014826 45.060183,60.089284 42.616161,60.089284 38.846542,60.089284 37.130604,61.991699 37.130604,65.025433 V 72.275551 H 35.206806 V 58.90686 H 37.130604 V 61.529041 H 37.182741 C 37.754644,60.115062 39.782487,58.495307 42.772343,58.495307 47.270046,58.495307 48.621942,60.809275 48.621942,63.997229 V 72.275551 H 46.698144 Z"
               inkscape:connector-curvature="0"
               style="fill:#575756" />
            <path
               id="Fill-17"
               d="M 52.884504,54.69034 H 54.808302 V 58.906724 H 58.630059 V 60.346482 H 54.808302 V 69.19035 C 54.808302,70.347222 55.172345,70.887215 56.732329,70.887215 57.668274,70.887215 58.266017,70.810106 58.630059,70.732996 V 72.326973 C 57.902203,72.429861 57.148279,72.481192 56.52424,72.481192 53.534612,72.481192 52.884504,71.324321 52.884504,69.164798 V 60.346482 H 49.946556 V 58.906724 H 52.884504 Z"
               inkscape:connector-curvature="0"
               style="fill:#575756" />
            <path
               id="Fill-19"
               d="M 69.002607,53.250741 H 71.368652 L 67.598575,56.901579 H 66.012979 Z M 73.318289,64.614129 C 72.772226,61.323287 70.328662,60.089306 67.754756,60.089306 65.284895,60.089306 62.633241,61.349066 62.191223,64.614129 Z M 74.904342,68.007859 C 74.124121,70.373159 72.096279,72.686901 67.624872,72.686901 62.087178,72.686901 60.267196,68.856291 60.267196,65.591002 60.267196,61.863281 62.581105,58.495329 67.624872,58.495329 71.108426,58.495329 75.242087,59.986418 75.242087,66.053886 H 62.191223 C 62.191223,68.830287 64.192997,71.092924 67.624872,71.092924 70.848428,71.092924 72.304368,70.038715 72.980544,68.007859 Z"
               inkscape:connector-curvature="0"
               style="fill:#575756" />
            <path
               id="Fill-21"
               d="M 13.814827,5.8842142 C 13.55483,2.7475917 10.980924,1.9249378 7.9912963,1.9249378 5.0014403,1.9249378 2.7394399,3.081809 2.7394399,5.1642224 2.7394399,7.5553007 5.0014403,8.120847 9.5249838,8.8663912 12.90495,9.4319375 16.284688,10.20326 16.284688,13.725431 16.284688,18.224701 12.151026,19.458682 8.5371308,19.458682 3.8315662,19.458682 0.39969173,17.864705 0.11385463,12.928556 H 2.0376526 C 2.3756264,16.784944 4.9756006,17.710486 8.5371308,17.710486 11.319126,17.710486 14.204709,16.964716 14.204709,14.059649 14.204709,11.257469 10.8252,10.923252 7.4454618,10.383258 3.0255056,9.6892712 0.65991782,8.4550642 0.65991782,5.4984397 0.65991782,1.4878322 4.4034691,0.1767417 7.9912963,0.1767417 11.786984,0.1767417 15.608741,1.5136108 15.738625,5.8842142 Z"
               inkscape:connector-curvature="0"
               style="fill:#1d1d1b" />
            <path
               id="Fill-23"
               d="M 3.4675241,36.212081 H 10.903176 C 14.126732,36.212081 15.062677,34.746771 15.062677,32.612801 15.062677,29.861953 13.502921,29.065078 11.293058,29.065078 H 3.4675241 Z M 1.5437261,27.316881 H 11.552827 C 14.412798,27.316881 17.142657,28.73086 17.142657,32.612801 17.142657,36.083641 14.828748,37.960277 10.694858,37.960277 H 3.4675241 V 45.673054 H 1.5437261 Z"
               inkscape:connector-curvature="0"
               style="fill:#1d1d1b" />
            <path
               id="Fill-25"
               d="M 13.814827,59.238725 C 13.55483,56.102103 10.980924,55.279449 7.9912963,55.279449 5.0014403,55.279449 2.7394399,56.43632 2.7394399,58.518734 2.7394399,60.909812 5.0014403,61.475584 9.5249838,62.220902 12.90495,62.786449 16.284688,63.557998 16.284688,67.080169 16.284688,71.578986 12.151026,72.813193 8.5371308,72.813193 3.8315662,72.813193 0.39969173,71.218991 0.11385463,66.282841 H 2.0376526 C 2.3756264,70.139455 4.9756006,71.064997 8.5371308,71.064997 11.319126,71.064997 14.204709,70.319453 14.204709,67.41416 14.204709,64.611981 10.8252,64.277763 7.4454618,63.73777 3.0255056,63.043556 0.65991782,61.809575 0.65991782,58.853177 0.65991782,54.84257 4.4034691,53.531253 7.9912963,53.531253 11.786984,53.531253 15.608741,54.868122 15.738625,59.238725 Z"
               inkscape:connector-curvature="0"
               style="fill:#1d1d1b" />
          </g>
        </g>
        <g
           transform="translate(0,0.126623)"
           id="Group-32"
           style="fill:#ffffff">
          <path
             id="Fill-28"
             d="M 49.679447,4.9465064 C 43.63745,10.998895 44.702916,21.234178 41.256763,26.792167 31.925568,41.84246 6.2219345,34.753529 0.8011162,53.591013 -1.7397349,62.420674 1.6039967,72.968343 13.130511,73.963571 20.826615,74.627591 25.088481,68.88208 26.670412,64.945468 29.567106,57.737871 27.724651,49.405364 33.146615,42.076577 41.434111,30.874299 55.39745,31.63472 62.345895,28.206051 81.795126,18.608393 66.156141,-11.558527 49.679447,4.9465064"
             inkscape:connector-curvature="0" />
          <path
             id="Fill-30"
             d="M 71.282134,54.391785 C 71.282134,65.230035 62.510481,74.016316 51.690612,74.016316 40.87143,74.016316 32.100236,65.230035 32.100236,54.391785 32.100236,43.553765 40.87143,34.767714 51.690612,34.767714 62.510481,34.767714 71.282134,43.553765 71.282134,54.391785"
             inkscape:connector-curvature="0" />
        </g>
      </g>
    </g>
  </g>
</svg>
