<svg xmlns="http://www.w3.org/2000/svg" viewBox="0 0 20 24"><g fill="currentColor" fill-rule="evenodd"><path d="M18.644 23.32c.206-.376.39-.765.552-1.163.153-.434.266-.882.337-1.338a7.75 7.75 0 00.11-1.332c0-.46-.088-.916-.088-1.371 0-.456-.32-.821-.205-1.265.856 1.725.216 5.727-.706 6.47zm-.045-4.536a16.455 16.455 0 01-.17 1.805 3.541 3.541 0 01-.553 1.568c-.066.095-.226.13-.348.168a.92.92 0 01-.248 0H3.092c-.171 0-.343.045-.514.045a.673.673 0 01-.243-.09v-.072h11.539c.513 0 1.032.04 1.546.045.259 0 .513-.045.772-.045.36 0 .718.045 1.105.04.157-.015.313-.05.463-.101v-.289a8.096 8.096 0 00.602-3.704 1.193 1.193 0 000-.14c-.06-.321-.06-.321.26-.523-.028.466 0 .91-.023 1.292zM1.827 17.306c.03.051.05.11.056.169a8.662 8.662 0 00.154 3.513c.03.105.067.209.11.309.045.08.072.171.078.264a6.859 6.859 0 01-.398-4.255zm-.287 3.665a17.897 17.897 0 01-.215-2.102c.013-.548.065-1.095.155-1.636a.563.563 0 01.066-.157c-.171 1.753-.32 3.468.635 5.058a1.784 1.784 0 01-.64-1.163zm.216-4.913l.116.034c-.061.225-.116.45-.2.748-.17-.349.095-.54.084-.782zm.287.276h.072c-.05.219-.1.433-.155.663-.144-.112-.1-.427.083-.663zm4.052 5.57a.43.43 0 000 .084H2.54s0-.078.044-.078l3.511-.006zm8.193 0H6.222v-.046h8.082l-.016.045zm.143-.017h2.54v-.05h-2.54v.05zM3.688 18.324c.669.25 1.355.45 2.054.595.894.169 1.805.253 2.71.349.637.081 1.28.115 1.922.101a33.641 33.641 0 003.058-.275 22.85 22.85 0 002.611-.523c.63-.169 1.232-.455 1.86-.692a7.868 7.868 0 01-.551 3.598h-.458c-.552 0-1.055.05-1.574.05H6.918c-1.21 0-2.424.034-3.633.05-.182.045-.37.045-.552 0a1.28 1.28 0 01-.514-.882 8.58 8.58 0 01-.231-1.54c0-.562.055-1.068.082-1.579.552.264 1.077.55 1.635.748h-.017zM2.54 15.766a6.626 6.626 0 003.108 1.293 20.79 20.79 0 002.473.382c1.033.056 2.07 0 3.108-.045a15.027 15.027 0 001.74-.169c.59-.095 1.17-.236 1.75-.382.58-.146.999-.292 1.496-.438v.045c-.398.146-.784.315-1.187.427-.573.171-1.156.306-1.745.405-.806.118-1.618.208-2.43.253-.895.059-1.792.059-2.688 0-1.021-.085-2.031-.276-3.036-.456a5.465 5.465 0 01-2.313-.927c-.105-.084-.392-.096-.276-.388zm17.39 2.518c-.066-.438-.21-.871-.315-1.304l-.143-.523-.227-.168c-.231.112-.629.073-.607.562 0 0-.033.045-.06.056-.486.276-.961.562-1.47.815-.775.341-1.59.586-2.423.73-.63.124-1.258.293-1.893.355-.845.084-1.7.101-2.55.124H8.126a6.587 6.587 0 01-.812-.107c-.552-.085-1.104-.146-1.656-.27-.66-.15-1.31-.338-1.949-.562-.484-.211-.956-.45-1.413-.714-.177-.09-.16-.315 0-.455 0-.062-.039-.13-.083-.27.315.197.552.365.8.5.758.39 1.564.676 2.396.849.768.157 1.54.287 2.314.393.463.057.933.051 1.402.062.47.011.817 0 1.226 0 .883-.062 1.766-.14 2.65-.225a12.27 12.27 0 003.196-.742c.59-.219 1.16-.511 1.733-.792.139-.068.254-.202.404-.275a3.05 3.05 0 01-1.331.882c-.522.224-1.06.411-1.607.562-.522.148-1.053.262-1.59.343-.86.155-1.728.266-2.6.332-.938.045-1.882 0-2.82-.04a14.165 14.165 0 01-1.618-.123c-.602-.09-1.2-.21-1.79-.36a7.812 7.812 0 01-2.246-.877.717.717 0 00-.204-.056c.038.04.066.09.11.112.403.191.8.394 1.21.562 1.051.402 2.15.666 3.267.787.674.09 1.358.14 2.038.169.679.028 1.352.034 2.031 0a18.815 18.815 0 001.927-.225c.824-.123 1.64-.292 2.446-.506a12.563 12.563 0 001.965-.764 9.026 9.026 0 001.253-.815c.083-.057.116-.186.193-.326h-.309l.061-.045a1.927 1.927 0 00-.232-.405s-.204.067-.293.135c-.215.174-.408.376-.634.562a6.973 6.973 0 01-2.131.944 20.63 20.63 0 01-2.446.512c-.95.148-1.906.24-2.865.275-.911 0-1.822-.04-2.76-.101a12.645 12.645 0 01-1.59-.236 11.634 11.634 0 01-1.442-.388 4.741 4.741 0 01-1.788-.95.405.405 0 01-.11-.13c.472.302.967.567 1.479.793a20.4 20.4 0 002.015.563c1.271.265 2.566.392 3.864.382a14.83 14.83 0 001.872-.107 17.246 17.246 0 002.01-.242c.8-.168 1.59-.427 2.379-.657a5.201 5.201 0 002.032-1.125c.132-.118.276-.236.165-.455h-.237v-.354c-.15.056-.29.138-.414.242a3.982 3.982 0 01-1.74 1.05 11.16 11.16 0 01-2.86.743c-.921.095-1.849.236-2.76.27-.91.033-1.821-.051-2.76-.107-.501-.017-1-.079-1.49-.186a17.96 17.96 0 01-2.209-.669 2.114 2.114 0 01-1.307-1.034c0-.045-.077-.067-.116-.107l-.072.045.182.562-.093.034c-.1-.213-.194-.426-.315-.686-.034.17-.06.27-.094.444-.066-.174-.1-.274-.144-.393l-.116.18c0-.062-.038-.124-.066-.197l-.232 1.203a.916.916 0 01-.226-1.124l-.182.084c.05-.152.088-.253.149-.427-.127.121-.24.255-.343.4-.066.11-.066.262-.126.386a6.084 6.084 0 00-.492 1.804c-.05.444-.055.894-.121 1.338a7.115 7.115 0 00.094 2.406c.093.558.28 1.096.552 1.59.252.403.623.715 1.06.888 0 0 .077-.033.127-.062l-.171-.185.265-.152a1.836 1.836 0 01-1.105-1.072 6.649 6.649 0 01-.513-2.481 10.444 10.444 0 01.06-1.6c.078-.708.222-1.416.332-2.125h.121c.044.2.066.403.067.607-.1.844-.26 1.687-.315 2.524-.055.795.05 1.592.31 2.344.144.393.329.77.551 1.124.15.242.423.374.701.337a2.877 2.877 0 00-.297-.241 1.512 1.512 0 01-.63-.776 6.172 6.172 0 01-.452-2.406c-.015-.59.004-1.182.055-1.77.053-.378.125-.753.216-1.124a.33.33 0 01.105.258c-.089.635-.221 1.26-.26 1.894a6.743 6.743 0 00.503 3.182c.14.422.513.72.95.759h.64l3.599.078h4.118l4.66.05h.696c.265-.001.53.014.795.046a.939.939 0 001.104-.506c.172-.341.311-.699.414-1.068.167-.588.282-1.19.342-1.799a15.669 15.669 0 00-.105-1.9 1.25 1.25 0 01.039-.236h.094c.05.364.081.73.094 1.097a15.23 15.23 0 01-.11 1.686c-.122.916-.244 1.838-.934 2.546-.182.185.105.275.11.433.072 0 .177 0 .221-.05.17-.149.316-.323.431-.518a8.426 8.426 0 00.685-3.743 5.474 5.474 0 00-.26-1.687c.083 0 .171.034.188.085.047.14.079.285.094.433.079.533.119 1.073.121 1.613a16.867 16.867 0 01-.265 1.888 3.462 3.462 0 01-.905 2.03c-.064.08-.12.166-.166.258l.342.04v.348c.11-.034.227-.057.332-.096a.353.353 0 00.116-.124c.398-.55.674-1.183.806-1.854.104-.731.237-1.462.303-2.198a5.598 5.598 0 00-.055-1.293z" /><path d="M2.872 6.536a6.182 6.182 0 011.192-3.31 5.812 5.812 0 012.561-2.057C7.177.966 7.729.826 8.282.65L7.227.854V.798c.342-.073.675-.152 1.016-.214a6.683 6.683 0 011.772.04 6.926 6.926 0 013.092 1.123 7.868 7.868 0 012.55 2.727c.274.482.482 1 .619 1.54.188.595.3 1.213.33 1.838a9.952 9.952 0 01-.264 1.871 5.21 5.21 0 01-.861 1.984 6.695 6.695 0 01-1.425 1.518 6.156 6.156 0 01-2.854 1.242 6.774 6.774 0 01-3.693-.506 7.713 7.713 0 01-2.015-1.247 6.974 6.974 0 01-1.657-2.046 7.333 7.333 0 01-.966-4.16v.028zm.165 3.435a6.427 6.427 0 001.32 2.248 7.836 7.836 0 003.83 2.479c.76.223 1.55.32 2.341.286a8.393 8.393 0 001.844-.365 6.18 6.18 0 003.418-2.54 5.561 5.561 0 00.971-2.148c.146-.652.24-1.316.282-1.984a9.043 9.043 0 00-.204-1.574 7.06 7.06 0 00-1.05-2.585A7.157 7.157 0 0013.792 1.6 9.095 9.095 0 0011.925.561 12.755 12.755 0 009.812.04c-.177-.034-.403-.101-.552.095l.21.18c-.097.046-.2.08-.304.101a5.649 5.649 0 00-.872 0 12.76 12.76 0 00-1.9.495A5.426 5.426 0 004.268 2.4a5.968 5.968 0 00-1.215 1.876c-.23.603-.401 1.226-.513 1.861a6.159 6.159 0 00-.044 1.77c.128.702.309 1.391.54 2.064z" /><path d="M17.7 23.635a.345.345 0 00-.177-.113c-.475 0-.95-.056-1.424-.062h-3.76c-.232 0-.464-.05-.696-.05-.64 0-1.28.045-1.92.05-.442 0-.884-.045-1.326-.05H2.264c-.044.242.11.32.392.315.42 0 .844 0 1.27.05.667.034 1.335.09 2.003.107 1.05.034 2.093.05 3.142.062l5.52.056h2.965c.26-.017.088-.253.144-.365m-1.436-.686h-4.841c-.933 0-1.866-.045-2.8-.056H2.346a.276.276 0 000 .067c.062.02.125.036.188.045h.895l2.804.084h1.789l4.532.051h3.837c.287 0 .552.05.856.045a2.46 2.46 0 00.491-.146c-.127-.062-.187-.118-.254-.124l-1.22.034zm-1.402-16.3a5.226 5.226 0 01-.144 3.322 15.2 15.2 0 00.265-1.72 12.207 12.207 0 00-.121-1.625v.023zm.1-1.029c.86 1.945.551 4.221-.464 5.548a5.81 5.81 0 00.143-5.992 6.406 6.406 0 00-4.897-3.434c1.679.017 4.075 1.281 5.217 3.856v.022zm-4.754-3.417v-.034l1.104.32v.057l-1.104-.343zm3.108 9.195a4.276 4.276 0 01-2.666 1.22 4.998 4.998 0 01-2.76-.489 5.924 5.924 0 01-2.364-2.063 5.542 5.542 0 01-.971-3.771 4.589 4.589 0 011.104-2.53 4.877 4.877 0 012.954-1.618c.242-.045.485-.045.772-.068l-.187.22c.066.05.132.129.21.145.276.062.552.096.833.147a5.125 5.125 0 012.286 1.124 5.635 5.635 0 012.087 3.445 4.548 4.548 0 01-1.298 4.255v-.017zm-6.21.664c2.147 1.169 4.245 1.298 6.337-.332-1.617 1.641-4.46 1.664-6.338.348v-.016zm-.884-.664l.342.293-.038.033-.304-.326zM4.317 7.16c.007.394.053.785.138 1.17.155.561.387 1.05.591 1.584-.834-1.011-1.054-3.749-.552-4.935.783-1.947 2.632-3.232 4.698-3.265a.76.76 0 01.055.084c-.066.045-.132.135-.204.135-.66.011-1.31.16-1.91.438A4.695 4.695 0 005.3 3.833a5.22 5.22 0 00-.988 2.417c-.03.303-.028.608.005.91zm8.193 5.745a5.008 5.008 0 01-2.418.528 6.096 6.096 0 01-3.6-1.265A6.571 6.571 0 013.865 7.61a5.976 5.976 0 01.187-2.248 5.182 5.182 0 011.37-2.327A5.399 5.399 0 018.43 1.54c.293-.057.657-.225.961.112-.32 0-.624.05-.922.09a5.022 5.022 0 00-2.065.691 4.944 4.944 0 00-2.103 2.546 5.184 5.184 0 00-.365 2.468 6.746 6.746 0 001.325 3.372 6.482 6.482 0 001.79 1.614 5.96 5.96 0 002.29.809c.97.18 1.972.063 2.877-.337a13.25 13.25 0 001.38-.843l.11-.068.077.096c-.425.286-.833.59-1.275.815zM9.28 1.325l-1.899.288a4.349 4.349 0 011.9-.287zM6.404 13.017a6.18 6.18 0 002.816 1.124 6.291 6.291 0 002.506-.123 5.897 5.897 0 002.96-1.8 5.702 5.702 0 001.418-2.77A6.3 6.3 0 0016.22 7.2a6.404 6.404 0 00-.668-2.249c-.28-.51-.593-1-.938-1.467a6.782 6.782 0 00-2.496-1.995A7.933 7.933 0 009.811.826a3.346 3.346 0 00-.475 0c.002.043.002.086 0 .129.11.038.223.07.337.096a7.67 7.67 0 011.203.207A16.52 16.52 0 0112.621 2c.218.136.423.292.612.467.276.253.552.506.834.753a3.479 3.479 0 01-.326-.236c-.176-.163-.342-.343-.513-.517a.458.458 0 01-.15-.04 6.833 6.833 0 00-2.207-1.067 7.913 7.913 0 00-1.198-.242c-.177 0-.37.101-.553.101a5.624 5.624 0 00-3.135.916 5.57 5.57 0 00-1.657 1.642 5.916 5.916 0 00-.91 2.855 6.68 6.68 0 00.623 3.226c.995 2.188 3.02 3.704 5.367 4.019.93.129 1.876.029 2.76-.292a5.732 5.732 0 002.208-1.462c.15-.163.31-.32.464-.483.116-.23.226-.46.353-.686a5.98 5.98 0 00.718-2.462A7.033 7.033 0 0015 4.558a15.812 15.812 0 01-.21-.439c-.226-.258-.447-.522-.668-.78.221.258.442.522.668.78.293.471.558.96.795 1.462a6.28 6.28 0 01.47 2.355 6.492 6.492 0 01-1.016 3.507 1.17 1.17 0 01-.188.18.476.476 0 01-.066.152l-1.022 1.006c-.52.452-1.133.78-1.794.961a6.022 6.022 0 01-3.312.068 6.848 6.848 0 01-2.92-1.557 6.58 6.58 0 01-1.894-2.72 7.577 7.577 0 01-.48-1.788 6.417 6.417 0 01.347-2.951 5.619 5.619 0 011.656-2.372l.74-.596a4.878 4.878 0 00-1.822 1.596A6.165 6.165 0 003.18 6.986c.009.922.197 1.833.552 2.681a6.25 6.25 0 001.298 2.097c.424.454.883.874 1.374 1.253z" /></g></svg>