<?xml version="1.0" encoding="UTF-8"?>
<svg width="20px" height="20px" viewBox="0 0 20 20" version="1.1" xmlns="http://www.w3.org/2000/svg" xmlns:xlink="http://www.w3.org/1999/xlink">
    <title>14DF946C-D3C5-447F-AE76-F8F530123661@2x</title>
    <defs>
        <filter color-interpolation-filters="auto" id="filter-1">
            <feColorMatrix in="SourceGraphic" type="matrix" values="0 0 0 0 0.336872 0 0 0 0 0.336872 0 0 0 0 0.336872 0 0 0 1.000000 0"></feColorMatrix>
        </filter>
    </defs>
    <g id="Page-1" stroke="none" stroke-width="1" fill="none" fill-rule="evenodd">
        <g id="PictoRS/Instagram" transform="translate(-800.000000, -3841.000000)" filter="url(#filter-1)">
            <g transform="translate(800.000507, 3841.000506)">
                <path d="M11.2447868,0.00067959957 C12.8600675,0.00471322148 13.2463242,0.0195821907 14.1224489,0.0596202625 C15.1868439,0.108230765 15.9137691,0.277249788 16.5498287,0.524422577 C17.2074541,0.779967418 17.7650966,1.12190658 18.3210296,1.67783715 C18.8769626,2.23376772 19.2189033,2.79149543 19.4744492,3.44907411 C19.7217108,4.08517475 19.8907305,4.81209681 19.9392974,5.8764871 C19.9479936,6.06694816 19.9555016,6.23425586 19.9619686,6.39607049 L19.9692387,6.58874164 L19.9692387,6.58874164 L19.9755659,6.78292098 C19.9912311,7.30877156 19.9974402,7.92304618 19.9990104,9.20443713 L19.9990104,10.7943763 C19.9972439,12.235986 19.9896064,12.8332443 19.9692387,13.4101328 L19.9619686,13.6028048 C19.9555016,13.76462 19.9479936,13.9319277 19.9392974,14.1223887 C19.8907305,15.186779 19.7217108,15.9137011 19.4744492,16.5498017 C19.2189033,17.2073804 18.8769626,17.7651081 18.3210296,18.3210387 C17.7650966,18.8769693 17.2074541,19.2189084 16.5498287,19.4744533 C15.9137691,19.721626 15.1868439,19.8906451 14.1224489,19.9392556 C13.931987,19.9479438 13.7646758,19.9554482 13.6028559,19.9619145 L13.4101776,19.9691851 C12.8332689,19.9895579 12.2359813,19.9972325 10.7943994,19.9990094 L9.20447434,19.9990094 C7.92307299,19.9974299 7.30877964,19.9911906 6.78291583,19.9755151 L6.5887318,19.9691851 L6.5887318,19.9691851 L6.39605666,19.9619145 C6.23423902,19.9554482 6.06692919,19.9479438 5.87646729,19.9392556 C4.81202851,19.8906451 4.08510326,19.721626 3.44908749,19.4744533 C2.7914621,19.2189084 2.23377578,18.8769693 1.67784277,18.3210387 C1.12190977,17.7651081 0.779969106,17.2073804 0.524466978,16.5498017 C0.277161607,15.9137011 0.108141843,15.186779 0.0596187936,14.1223887 C0.0196165519,13.2462679 0.00472437106,12.860072 0.000681316732,11.2447709 L0.000681316732,8.75405635 C0.00314230632,7.77085915 0.00962301008,7.24304024 0.023339669,6.78292098 L0.0296706316,6.58874164 C0.0375954877,6.36439748 0.0474441983,6.14313258 0.0596187936,5.8764871 C0.108141843,4.81209681 0.277161607,4.08517475 0.524466978,3.44907411 C0.779969106,2.79149543 1.12190977,2.23376772 1.67784277,1.67783715 C2.23377578,1.12190658 2.7914621,0.779967418 3.44908749,0.524422577 C4.08510326,0.277249788 4.81202851,0.108230765 5.87646729,0.0596202625 C6.14311394,0.0474347624 6.36438256,0.0375806158 6.5887318,0.0296537398 L6.78291583,0.0233218346 C7.24304666,0.00960470463 7.77088136,0.00313484769 8.75408929,0.00067959957 Z M11.0412233,1.80198609 L8.95764909,1.80198609 C7.21941298,1.80507155 6.85687187,1.81851912 5.95856637,1.85948 C4.98363442,1.90397022 4.45408883,2.06694033 4.10171594,2.20382996 C3.6349391,2.38525365 3.30180886,2.60196268 2.95189061,2.9518794 C2.60201619,3.30183995 2.3853062,3.6349249 2.20388172,4.10169969 C2.06694766,4.45407104 1.90402067,4.9836143 1.85948642,5.95854198 C1.8185627,6.85684354 1.80508879,7.21938306 1.80199471,8.95761156 L1.80199471,11.0412098 C1.80387807,12.0992939 1.80960725,12.6476474 1.82303203,13.1173561 L1.82926789,13.3151016 C1.83711894,13.5431199 1.84703137,13.7668728 1.85948642,14.0402462 C1.90402067,15.0152615 2.06694766,15.5448048 2.20388172,15.8971761 C2.3853062,16.3639071 2.60201619,16.6970359 2.95189061,17.0469964 C3.30180886,17.3969132 3.6349391,17.6136222 4.10171594,17.795002 C4.45408883,17.9319355 4.98363442,18.0949056 5.95856637,18.1393082 C6.89577278,18.1821279 7.2497177,18.1948859 9.19227082,18.1971924 L10.8066015,18.1971924 C12.7491547,18.1948859 13.1030996,18.1821279 14.040306,18.1393082 C15.0152818,18.0949056 15.5447835,17.9319355 15.8971564,17.795002 C16.3639771,17.6136222 16.6971073,17.3969132 17.0469818,17.0469964 C17.3969877,16.6970359 17.6136977,16.3639071 17.7950345,15.8971761 C17.9319247,15.5448048 18.0948955,15.0152615 18.139386,14.0402462 C18.1518524,13.7668728 18.1617732,13.5431199 18.1696305,13.3151016 L18.1758712,13.1173561 C18.1902657,12.6140968 18.195817,12.0205565 18.1972675,10.8065184 L18.1972675,9.19229576 C18.1949466,7.24989546 18.1821279,6.89590013 18.139386,5.95854198 C18.0948955,4.9836143 17.9319247,4.45407104 17.7950345,4.10169969 C17.6136977,3.6349249 17.3969877,3.30183995 17.0469818,2.9518794 C16.6971073,2.60196268 16.3639771,2.38525365 15.8971564,2.20382996 C15.5447835,2.06694033 15.0152818,1.90397022 14.040306,1.85948 C13.7669087,1.84701364 13.5431379,1.83709578 13.3151078,1.8292429 L13.1173534,1.82300629 C12.6476275,1.80958157 12.09928,1.80386419 11.0412233,1.80198609 Z M9.94943619,4.79943792 C12.7936911,4.79943792 15.0994362,7.10521714 15.0994362,9.94941594 C15.0994362,12.7937466 12.7936911,15.0994379 9.94943619,15.0994379 C7.10518129,15.0994379 4.79943619,12.7937466 4.79943619,9.94941594 C4.79943619,7.10521714 7.10518129,4.79943792 9.94943619,4.79943792 Z M9.94943619,6.60644929 C8.10316083,6.60644929 6.60641131,8.10314847 6.60641131,9.94941594 C6.60641131,11.7957274 8.10316083,13.2924265 9.94943619,13.2924265 C11.7957555,13.2924265 13.2924611,11.7957274 13.2924611,9.94941594 C13.2924611,8.10314847 11.7957555,6.60644929 9.94943619,6.60644929 Z M15.2994362,3.49943792 C15.9621823,3.49943792 16.4994362,4.03669182 16.4994362,4.69943792 C16.4994362,5.36214019 15.9621823,5.89943792 15.2994362,5.89943792 C14.6367339,5.89943792 14.0994362,5.36214019 14.0994362,4.69943792 C14.0994362,4.03669182 14.6367339,3.49943792 15.2994362,3.49943792 Z" id="instagram" fill="#000000"></path>
            </g>
        </g>
    </g>
</svg>