<svg width="40px" height="27px" viewBox="0 0 40 27" version="1.1" xmlns="http://www.w3.org/2000/svg" xmlns:xlink="http://www.w3.org/1999/xlink">
    <title>04AE14E5-7410-4752-8B2E-380258801B05</title>
    <g id="Page-1" stroke="none" stroke-width="1" fill="none" fill-rule="evenodd">
        <g id="M---Index-Produits" transform="translate(-1400.000000, -828.000000)" fill="#1D1D1B">
            <g id="ARROW" transform="translate(1400.000000, 828.000000)">
                <path d="M22.1382114,24 L22,24 L23.9512195,22 L24,22 L22.1382114,24 Z M22.445,22 L22.555,22 L22.555,12 L22.445,12 L22.445,22 Z M22.45,26 L22.55,26 L22.55,23 L22.45,23 L22.45,26 Z M20.5,26 L20.5,26 L20.5,23 L20.5,26 Z M11,13.9821074 C10.9335793,13.9516899 10.8693727,13.9176938 10.8081181,13.8807157 C9.86346863,13.1829026 8.91881919,12.473161 7.95940959,11.7693837 C7.67158672,11.5606362 7.36162362,11.3697813 7.06642066,11.1729622 C7.02583026,11.1210736 7.00295203,11.0614314 7,11 C7.27306273,11.1789264 7.55350554,11.3518887 7.81918819,11.5427435 C8.8302583,12.3479125 9.9298893,13.1471173 10.9630996,14 L11,13.9821074 Z M10.4144548,17.1965544 C11.1138809,17.8449491 11.7713415,18.5074393 12.4427905,19.1628818 C13.3450502,20.0297572 14.2473099,20.9036805 15.1565638,21.7635082 C15.4852941,22.0806578 15.85599,22.3766641 16.1567432,22.6938136 C16.688307,23.2153485 17.2058824,23.7580266 17.7444405,24.2795615 C18.0172166,24.5403289 18.2270445,24.9279561 18.6327116,24.871574 C18.7516141,24.6742365 18.8355452,24.5473767 18.9194763,24.4134691 C19.0943329,25.3014879 18.8005739,26.1542678 19.0243902,26.9859045 L19.5629484,26.7956147 C19.6538737,26.7956147 19.8007532,26.7039937 19.8007532,26.6617071 C19.8007532,26.3727486 20.0595409,26.0344558 19.660868,25.8159749 C19.6258967,25.7856695 19.6056133,25.7419734 19.6049139,25.6961629 L19.6049139,24.0610807 C19.6049139,23.807361 19.6049139,23.4479248 19.954627,23.3563038 L19.954627,26.3657009 C19.9518293,26.4826938 19.9763092,26.5982772 20.0245696,26.7039937 C20.0245696,26.7533281 20.1854376,26.7392326 20.2693687,26.7462803 C20.3532999,26.7533281 20.6190818,26.8097103 20.8009326,26.816758 C20.8778694,26.816758 21.0317432,26.7533281 21.0317432,26.7110415 L21.0317432,25.7948316 L21.0317432,22.9757244 C21.0415352,22.8833986 21.0653156,22.7931872 21.1016858,22.7079092 C21.156241,22.7699295 21.1835187,22.8509789 21.1786227,22.9334377 L21.1786227,26.4573218 C21.2024032,26.6018011 21.2394727,26.7434612 21.2905308,26.8801879 L21.6402439,26.6828504 L22.017934,27 C22.2767217,25.8371182 21.9130201,24.7376664 22.1298422,23.5747847 C22.178802,23.7368833 22.1997848,23.8214565 22.2627331,24.0399374 L39,7.30853563 L38.9020803,7.21691464 L38.1676829,8.01331245 L38.1187231,7.94988254 L38.867109,7.06891151 C38.8223458,7.04072044 38.7649928,7.04072044 38.7202296,7.06891151 C38.1816714,7.59044636 37.6431133,8.09788567 37.1115495,8.61942052 C35.7826399,9.92325764 34.4677188,11.2411903 33.1388092,12.5450274 C32.3554519,13.3132341 31.5441176,14.046202 30.7537661,14.807361 C29.9634146,15.56852 29.3549139,16.2169146 28.6554878,16.9216915 C28.1309182,17.4432263 27.5923601,17.9436179 27.0607963,18.4581049 C26.7530488,18.761159 26.4662841,19.0712608 26.1585366,19.367267 C25.3332138,20.1636648 24.4939024,20.9459671 23.6755739,21.7494127 C23.1510043,22.2638998 22.6544118,22.8065779 22.1438307,23.3351605 L22.0249283,23.2083007 L36.5590029,8.95066562 L36.4960545,8.88018794 L35.0972023,10.2192639 C34.0620516,11.2129992 32.998924,12.2067345 31.9917504,13.2075176 L27.2076758,17.8801879 C26.7880201,18.2889585 26.3893472,18.7188724 25.9696915,19.1205951 C25.4031564,19.6632733 24.8086442,20.1777604 24.242109,20.7274863 C23.6755739,21.2772122 23.0181133,21.9608457 22.4026184,22.5740016 L22.1438307,22.8136257 L22.045911,22.7572435 C22.1095588,22.5542678 22.1941894,22.3583399 22.2977044,22.1722788 C22.4431851,21.9798747 22.6047525,21.8008614 22.7803085,21.6366484 C23.5846485,20.8261551 24.3889885,20.0015662 25.2073171,19.1981206 C25.9067432,18.4933438 26.6691176,17.8308536 27.3965208,17.1260767 C28.123924,16.4212999 28.8373386,15.7165231 29.5647418,14.9624119 L33.3416428,11.2975724 L37.1675036,7.57635082 C37.4262912,7.32967894 37.6990674,7.09710258 37.9648494,6.871574 L37.8879125,6.83633516 L37.4962339,7.14643696 L37.4332855,7.07595928 L38.1327116,6.37118246 L38.0487805,6.28660924 C35.090208,8.88018794 32.3134864,11.6781519 29.3968795,14.4056382 L28.2708034,15.5191856 C28.1148314,15.7129992 27.9413737,15.8920125 27.7532281,16.054816 C26.9139168,16.8582616 26.0746055,17.6546594 25.2352941,18.4440094 C25.1863343,18.5003915 25.1233859,18.5356304 25.0744261,18.5849648 C24.4659254,19.155834 23.8574247,19.7196554 23.2699067,20.2975724 C22.8852224,20.6711042 22.5704806,21.0728269 22.1648135,21.4604542 L22.0039455,21.3970243 L22.0039455,19.4095536 L22.0039455,17.8942835 C22.0039455,16.1111981 21.9619799,14.3281128 21.9270086,12.5450274 C21.9130201,12.3533281 22.0039455,10.733751 22.0039455,10.733751 C21.9983501,10.6371966 21.9983501,10.5413469 22.0039455,10.4447925 C22.0039455,8.67580266 21.9549857,6.92090838 21.9270086,5.13782302 C21.8360832,4.20046985 21.8151004,3.23492561 21.7731349,2.26938136 L21.8081062,2.24823806 C21.786424,1.49765074 21.7164813,0.748472984 21.5982783,0.00704776821 L21.5982783,11.0156617 L21.53533,11.0156617 C21.4562948,7.72646829 21.3765603,4.421065 21.2975251,1.09945184 L21.1786227,1.09945184 C21.1156743,8.20360219 21.1786227,15.3077525 21.2345768,22.4048551 L21.1086801,22.4048551 C21.057622,15.1646829 21.0058644,7.9266249 20.9548063,0.690681284 L20.8359039,0.690681284 C20.7939383,1.25168363 20.7939383,1.81409554 20.8359039,2.37509789 L20.8359039,4.09475333 L20.6820301,4.09475333 L20.6820301,0.732967894 L20.5351506,0.732967894 C20.4980811,7.88433829 20.4582138,15.0350039 20.4162482,22.1863743 L20.3183286,22.1863743 L20.3183286,3.5238841 L20.1924319,3.5238841 C20.1364778,9.63218481 20.0805237,15.7397807 20.0245696,21.8480814 C19.7727762,21.8480814 19.6748565,21.6718872 19.6818508,21.4181676 L19.6818508,13.9898199 L19.6818508,11.8120595 C19.6818508,9.85771339 19.7028336,7.9054816 19.7447991,5.95536413 C19.7447991,5.29287392 19.8077475,4.63743148 19.8077475,3.98198904 C19.8077475,3.32654659 19.7657819,2.60767424 19.7587877,1.90289742 C19.7587877,1.5293657 19.8077475,1.14878622 19.8357245,0.775254503 L19.7098278,0.775254503 L19.7098278,2.94596711 L19.6189024,2.94596711 L19.6189024,0 L19.5629484,0 C19.5209828,0.317149569 19.4650287,0.634299139 19.4510402,0.94440094 C19.4510402,2.02270948 19.4020803,3.10101801 19.3741033,4.17932655 C19.3461263,5.25763508 19.3181492,6.29365701 19.3041607,7.35787001 L19.3041607,11.0156617 L19.2202296,13.0947533 C19.2202296,14.4408771 19.1642755,15.7870008 19.1502869,17.1260767 L19.1502869,20.6499608 L19.1502869,21.0939702 C18.69566,20.6358653 18.3249641,20.2270948 17.919297,19.8606108 C16.4854735,18.6342991 15.1565638,17.4079875 13.7996772,16.2098669 C13.3310617,15.7870008 12.8554519,15.3641347 12.400825,14.9342208 L10.5403515,13.2709475 C10.0227762,12.8269381 9.4982066,12.3899765 8.98762554,11.9318716 C7.77761836,10.8465153 6.57460545,9.74706343 5.36459828,8.65465936 C4.84002869,8.17541112 4.32245337,7.68911511 3.79088953,7.24510572 C3.19637733,6.61080658 2.49695122,6.03288958 1.79752511,5.42678152 C1.7010043,5.37462803 1.59748924,5.33938919 1.48977762,5.321065 L1.44781205,5.41268598 L2.63683644,6.49099452 L4.00071736,7.72435395 C4.97991392,8.60743931 5.95421449,9.49334377 6.92431851,10.3813626 C8.37912482,11.7133908 6.95928981,10.4518403 6.97327834,10.4870791 C6.75086083,10.3651527 6.53823529,10.2263117 6.33680057,10.0712608 C5.76327116,9.56382146 5.21771879,9.02819107 4.64418938,8.52075176 C3.72094692,7.69616288 2.79071019,6.89271731 1.84648494,6.07517619 C1.67162841,5.92012529 1.5107604,5.75097886 1.33590387,5.58183242 L1.23798422,5.68050117 C1.35618723,5.83696163 1.48208393,5.98778387 1.61567432,6.13155834 C2.05631277,6.5614722 2.50394548,6.98433829 2.95157819,7.39310885 C3.81886657,8.18950666 4.70014347,8.96476116 5.56743185,9.76115897 C6.26685796,10.4659358 7.0152439,11.1213782 7.74264706,11.797964 C8.47005022,12.4745497 9.26739598,13.1793265 10.0017934,13.8841034 C10.3305237,14.1801096 10.6312769,14.5184025 10.9460187,14.8355521 L10.876076,14.9060298 L1.098099,5.89193422 L1.01416786,5.9624119 L1.11908178,6.19498825 L0.720408895,6.13155834 L1.83949067,7.19577134 L3.64401004,8.88018794 C4.22453372,9.42286609 4.81205165,9.95144871 5.38558106,10.5011746 C5.95911047,11.0509005 6.60957676,11.6922475 7.232066,12.2772122 C8.12033716,13.1088489 9.02259684,13.92639 9.90387374,14.7580266 C10.6522597,15.4628034 11.3656743,16.1675803 12.1140603,16.8723571 C12.8624462,17.5771339 13.6178264,18.2819107 14.3871951,18.972592 C14.8977762,19.458888 15.3733859,19.9804229 15.8769727,20.4737666 C16.5134505,21.0798747 17.170911,21.678935 17.8143831,22.2779953 L18.7795911,23.1589663 L18.7096485,23.2364918 C18.3599354,22.92639 18.0102224,22.6374315 17.6605093,22.3202819 L14.918759,19.733751 C14.5690459,19.4025059 14.2193329,19.0853563 13.848637,18.7470634 L11.2677547,16.2944401 C10.6662482,15.7235709 10.0787303,15.1315583 9.47722382,14.5677369 C8.50502152,13.651527 7.52582496,12.7494127 6.55362267,11.8402506 L3.25233142,8.72513704 L1.37786944,6.99138606 C1.2911406,6.9293657 1.19671808,6.87721222 1.098099,6.83633516 L0.993185079,6.96319499 C1.27994978,7.21691464 1.58070301,7.46358653 1.86047346,7.73140172 L4.13360832,9.84573218 L7.11316356,12.6648395 C7.46987088,13.0031323 7.81258967,13.3696163 8.16230273,13.6867659 C8.86172884,14.3492561 9.56115495,15.0046985 10.2605811,15.6742365 C10.9600072,16.3437745 11.7923242,17.1824589 12.5686872,17.9224745 C13.4709469,18.7963978 14.3871951,19.6491778 15.2964491,20.5160532 L18.7376255,23.7791699 C18.8278515,23.8616288 18.8956958,23.9659358 18.9334648,24.082224 C18.8166607,23.9560689 18.6851686,23.8447142 18.5417862,23.7509789 C17.8423601,23.393657 17.2268651,22.8890368 16.7372669,22.2709475 C16.1497489,21.6718872 15.4852941,21.1503524 14.8628049,20.5935787 C14.5130918,20.2693814 14.1633788,19.9310885 13.8416428,19.6068912 L10.7851506,16.7032106 C10.1626614,16.1041504 9.55416069,15.4980423 8.92467719,14.9130775 C7.91050933,13.9616288 6.87535868,13.0383712 5.85419656,12.0939702 C5.31563845,11.5865309 4.81205165,11.0438528 4.27349354,10.5293657 C3.45516499,9.72592013 2.60186514,8.95066562 1.79752511,8.18950666 C1.32890961,7.73844949 0.888271162,7.25920125 0.447632712,6.77995301 L0,6.93500392 C3.19637733,10.3179327 6.61657102,13.440094 9.92485653,16.7032106 C9.92485653,16.7032106 10.3193329,17.1162099 10.4144548,17.1965544 L10.4144548,17.1965544 Z M12.048474,16.7852349 C13.2549372,17.8389262 14.4470377,18.8993289 15.6391382,19.9395973 C16.3572711,20.5637584 17.0754039,21.1610738 17.7935368,21.7785235 C18.2028725,22.1208054 18.5978456,22.4496644 19,22.8322148 L19,23 C18.6912029,22.7449664 18.3752244,22.4966443 18.0736086,22.2416107 L16.5008977,20.8389262 C15.9120287,20.3221477 15.3375224,19.7852349 14.7414722,19.2684564 L11.459605,16.4765101 L11,16.1275168 L11.1077199,16 C11.4021544,16.2416107 11.7324955,16.5167785 12.048474,16.7852349 L12.048474,16.7852349 Z M32.3326531,15.6661231 C34.9138776,12.8777008 37.4534694,10.1333062 40,7.39624949 L39.9167347,7.29351814 C39.8230612,7.34121484 39.7342449,7.40065226 39.6530612,7.46962903 C39.4240816,7.69710558 39.2159184,7.9319201 38.9591837,8.15939666 L35.3093878,12.0264982 L34.1783673,13.2152466 L32.8391837,14.6241337 C32.5408163,14.9323278 32.2285714,15.2258459 31.9232653,15.526702 L31.8746939,15.4606604 L39.6808163,7.06604158 L39.6183673,7 L37.3840816,9.26742764 C36.4820408,10.1920098 35.58,11.109254 34.684898,12.048512 C33.3526531,13.4500611 32.0273469,14.8662862 30.6881633,16.2678353 C30.0706122,16.9135752 29.4322449,17.5373013 28.8146939,18.1903791 C27.5934694,19.467183 26.3861224,20.7513249 25.1718367,22.0281288 C24.5542857,22.6812067 23.9159184,23.3049327 23.2983673,23.9506726 C23.1831837,24.0930289 23.0832653,24.2478598 23,24.4129637 L23.1110204,24.5377089 L23.5828571,24.2515287 L23.3746939,24.9046066 L23.5204082,25 L30.4591837,17.6620465 L32.3326531,15.6661231 Z" id="Fill-1"></path>
            </g>
        </g>
    </g>
</svg>